{"title":"Whats.Your.Number.2011.DC.BRRip.720.x264.Feel-Free","uid":6935959,"size":2560456661,"categoryP":"video","categoryS":"hd___movies","magnet":"?xt=urn:btih:b785b3275b6b9dd95f96099d6d476ece59154f21&amp;dn=Whats.Your.Number.2011.DC.BRRip.720.x264.Feel-Free&amp;tr=udp%3A%2F%2Ftracker.openbittorrent.com%3A80&amp;tr=udp%3A%2F%2Fopen.demonii.com%3A1337&amp;tr=udp%3A%2F%2Ftracker.coppersurfer.tk%3A6969&amp;tr=udp%3A%2F%2Fexodus.desync.com%3A6969","seeders":0,"leechers":1,"uploader":"rcbcsk","files":-1,"time":1325827420,"description":"::::::: pitic Presents ::::::::\n\n:::::::: Whats.Your.Number.2011.DC.BRRip.720.x264.Feel-Free ::::::::\n\n\nGenre:Comedy | Romance\nLanguage:English\nIMDb:http://www.imdb.com/title/tt0770703/\nSource:DC 1080p BluRay x264-SPARKS Thanks!\n\nFormat : MPEG-4\nFormat profile : Base Media\nCodec ID : isom\nFile size : 2.38 GiB\nDuration : 1h 57mn\nOverall bit rate : 2 905 Kbps\n\nVideo\nID : 1\nFormat : AVC\nFormat/Info : Advanced Video Codec\nFormat profile : &lt;a class=&quot;__cf_email__&quot; href=&quot;/cdn-cgi/l/email-protection&quot; data-cfemail=&quot;9fd7f6f8f7dfd3aab1ae&quot;&gt;[email&amp;#160;protected]&lt;/a&gt;&lt;script cf-hash='f9e31' type=&quot;text/javascript&quot;&gt;\n/* &lt;![CDATA[ */!function(){try{var t=&quot;currentScript&quot;in document?document.currentScript:function(){for(var t=document.getElementsByTagName(&quot;script&quot;),e=t.length;e--;)if(t[e].getAttribute(&quot;cf-hash&quot;))return t[e]}();if(t&amp;&amp;t.previousSibling){var e,r,n,i,c=t.previousSibling,a=c.getAttribute(&quot;data-cfemail&quot;);if(a){for(e=&quot;&quot;,r=parseInt(a.substr(0,2),16),n=2;a.length-n;n+=2)i=parseInt(a.substr(n,2),16)^r,e+=String.fromCharCode(i);e=document.createTextNode(e),c.parentNode.replaceChild(e,c)}}}catch(u){}}();/* ]]&gt; */&lt;/script&gt;\nFormat settings, CABAC : Yes\nFormat settings, ReFrames : 3 frames\nCodec ID : avc1\nCodec ID/Info : Advanced Video Coding\nDuration : 1h 57mn\nBit rate mode : Variable\nBit rate : 2 500 Kbps\nMaximum bit rate : 11.5 Mbps\nWidth : 1 280 pixels\nHeight : 688 pixels\nDisplay aspect ratio : 1.860\nFrame rate mode : Constant\nFrame rate : 23.976 fps\nColor space : YUV\nChroma subsampling : 4:2:0\nBit depth : 8 bits\nScan type : Progressive\nBits/(Pixel*Frame) : 0.118\nStream size : 2.03 GiB (85%)\nWriting library : x264\n\n\nAudio\nID : 2\nFormat : AAC\nFormat/Info : Advanced Audio Codec\nFormat version : Version 4\nFormat profile : LC\nFormat settings, SBR : No\nCodec ID : 40\nDuration : 1h 57mn\nBit rate mode : Variable\nBit rate : 428 Kbps\nMaximum bit rate : 561 Kbps\nChannel(s) : 6 channels\nChannel positions : Front: L C R, Side: L R, LFE\nSampling rate : 48.0 KHz\nStream size : 358 MiB (15%)\n\n\nPlot:\nA woman looks back at the past twenty men she's had relationships with in her life and wonders if one of them might be her one true love","torrent":{"xt":"urn:btih:b785b3275b6b9dd95f96099d6d476ece59154f21","amp;dn":"Whats.Your.Number.2011.DC.BRRip.720.x264.Feel-Free","amp;tr":["udp%3A%2F%2Ftracker.openbittorrent.com%3A80","udp%3A%2F%2Fopen.demonii.com%3A1337","udp%3A%2F%2Ftracker.coppersurfer.tk%3A6969","udp%3A%2F%2Fexodus.desync.com%3A6969"],"infoHash":"b785b3275b6b9dd95f96099d6d476ece59154f21","infoHashBuffer":{"type":"Buffer","data":[183,133,179,39,91,107,157,217,95,150,9,157,109,71,110,206,89,21,79,33]},"announce":[],"urlList":[]}}